<svg width="33" height="33" viewBox="0 0 33 33" fill="none" xmlns="http://www.w3.org/2000/svg">
<path d="M0.159424 16.5C0.159424 9.67651 0.159424 6.26476 1.96289 3.91444C2.42718 3.30936 2.96879 2.76776 3.57387 2.30346C5.92418 0.5 9.33593 0.5 16.1594 0.5V0.5C22.9829 0.5 26.3947 0.5 28.745 2.30346C29.3501 2.76776 29.8917 3.30936 30.356 3.91444C32.1594 6.26476 32.1594 9.67651 32.1594 16.5V16.5C32.1594 23.3235 32.1594 26.7352 30.356 29.0856C29.8917 29.6906 29.3501 30.2323 28.745 30.6965C26.3947 32.5 22.9829 32.5 16.1594 32.5V32.5C9.33593 32.5 5.92418 32.5 3.57387 30.6965C2.96879 30.2323 2.42718 29.6906 1.96289 29.0856C0.159424 26.7352 0.159424 23.3235 0.159424 16.5V16.5Z" fill="#5278FF"/>
<path d="M5.43033 5.5C4.9995 5.5 4.93485 5.57205 4.85179 5.81702C4.76873 6.06189 4.77793 6.68454 5.27227 7.58948C6.1306 9.16105 8.36689 11.4516 12.6745 13.8796C13.1061 14.1229 13.6567 14.0154 14.0392 13.7005V13.7005C14.7475 13.1176 14.7859 11.8868 14.0201 11.3818C12.3354 10.2708 10.9928 9.1436 9.86013 8.18154C7.90202 6.51867 6.61988 5.5 5.43033 5.5ZM1.00016 12C0.605536 12.0007 0.540341 12.9491 0.5 13C0.459659 13.0508 0.396562 13.1951 0.449833 13.5313C0.556376 14.2035 0.899854 15.3676 2.02114 16.5005C4.26402 18.7663 6.15068 19.2229 11.1933 18.4384C11.4136 18.4042 11.682 18.3745 12.0049 18.5622C12.3276 18.7498 12.4941 19.1801 12.4983 19.4289C12.5061 19.9272 12.3436 20.1415 12.2167 20.4185C11.9631 20.9726 11.7667 21.627 11.7641 21.6076C11.969 23.1627 13.251 24.3324 15.1152 25.198C16.9795 26.064 19.3304 26.5462 21.2052 26.7258C22.219 26.823 23.3668 26.8313 24.4944 26.7127C24.9545 26.6643 25.1908 26.1513 25.0935 25.6991V25.6991C24.9111 24.8535 25.1044 23.9999 25.5169 23.2808C25.7001 22.9613 25.9256 22.6623 26.1872 22.3898C27.2467 21.2868 28.0551 19.5616 27.1032 18.3645V18.3645C25.0427 15.7735 22.1968 13.4966 20.0716 13.4522C17.9547 13.4079 15.5092 14.0799 14.1376 15.9653C13.9059 16.2836 13.5624 16.395 13.3082 16.4277C13.054 16.4607 12.83 16.4381 12.5924 16.3983C12.1174 16.3189 11.589 16.1523 10.9774 15.929C9.75421 15.4823 8.2233 14.8 6.61978 14.0863C5.34598 13.5195 4.02884 12.9334 2.81116 12.4368C2.20192 12.1883 1.65812 11.9987 1.00016 12V12ZM21.7891 17.5854C22.2195 17.598 22.6281 17.7782 22.9281 18.0878C23.2281 18.3974 23.3959 18.812 23.3958 19.2435C23.3958 19.6834 23.2215 20.1053 22.9111 20.4164C22.6007 20.7275 22.1798 20.9022 21.7408 20.9022C21.3019 20.9022 20.8809 20.7275 20.5705 20.4164C20.2601 20.1053 20.0858 19.6834 20.0858 19.2435C20.0857 19.0216 20.1302 18.8019 20.2164 18.5975C20.3026 18.3931 20.4288 18.2081 20.5877 18.0535C20.7465 17.8989 20.9347 17.7778 21.141 17.6973C21.3474 17.6169 21.5678 17.5789 21.7891 17.5854ZM30.0213 23.4564C29.8676 22.8111 29.0709 22.4827 28.4554 22.73C27.5897 23.078 26.7967 23.6779 26.5 24.195C26.2742 24.5886 26.4287 25.1696 26.5 25.5V25.5C26.6362 26.1317 27.7623 25.932 28.3237 25.6118C29.0942 25.1725 29.7004 24.6034 30.0734 23.8901C30.0438 23.9337 30.0922 23.7533 30.0213 23.4564V23.4564Z" fill="white"/>
</svg>
