<?xml version="1.0" standalone="no"?>
<!DOCTYPE svg PUBLIC "-//W3C//DTD SVG 20010904//EN"
 "http://www.w3.org/TR/2001/REC-SVG-20010904/DTD/svg10.dtd">
<svg version="1.0" xmlns="http://www.w3.org/2000/svg"
 width="700.000000pt" height="700.000000pt" viewBox="0 0 700.000000 700.000000"
 preserveAspectRatio="xMidYMid meet">
<metadata>
Created by potrace 1.14, written by Peter Selinger 2001-2017
</metadata>
<g transform="translate(0.000000,700.000000) scale(0.100000,-0.100000)"
fill="#000000" stroke="none">
<path d="M2797 6894 c-1 -1 -144 -5 -317 -8 -173 -4 -340 -8 -370 -10 -127 -8
-245 -17 -274 -21 -17 -2 -58 -7 -91 -10 -228 -21 -471 -75 -640 -142 -266
-105 -508 -295 -696 -546 -154 -205 -246 -444 -304 -792 -17 -97 -40 -327 -50
-500 -26 -426 -26 -2369 0 -2730 2 -27 6 -88 9 -135 4 -47 8 -103 11 -125 3
-22 7 -60 10 -85 15 -132 55 -346 89 -470 36 -131 134 -337 214 -449 151 -211
380 -414 582 -516 125 -63 406 -152 538 -169 15 -2 79 -11 142 -20 63 -8 142
-18 175 -20 33 -3 89 -8 125 -11 82 -7 210 -13 415 -21 219 -8 1897 -8 2120 0
262 10 449 20 530 30 17 2 64 7 105 11 41 3 82 8 90 10 8 2 35 7 60 10 507 67
885 281 1171 662 172 228 268 493 324 899 15 110 28 265 40 494 21 401 21
2094 -1 2545 -8 174 -20 338 -29 405 -1 14 -6 50 -9 80 -4 30 -9 62 -11 70 -2
8 -7 35 -10 60 -3 25 -8 52 -10 60 -2 8 -7 29 -10 45 -2 17 -7 41 -10 54 -7
36 -55 203 -64 226 -5 11 -20 49 -35 85 -115 281 -375 577 -649 738 -284 167
-616 243 -1212 277 -202 11 -605 17 -1253 19 -387 0 -704 0 -705 0z"/>
</g>
</svg>
